<svg width="14" height="15" viewBox="0 0 14 15" fill="none" xmlns="http://www.w3.org/2000/svg">
<path d="M6.99375 0.6922C3.12969 0.690638 0 3.81876 0 7.6797C0 10.7328 1.95781 13.3281 4.68437 14.2813C5.05156 14.3735 4.99531 14.1125 4.99531 13.9344V12.7234C2.875 12.9719 2.78906 11.5688 2.64687 11.3344C2.35938 10.8438 1.67969 10.7188 1.88281 10.4844C2.36562 10.2359 2.85781 10.5469 3.42812 11.3891C3.84062 12 4.64531 11.8969 5.05312 11.7953C5.14219 11.4281 5.33281 11.1 5.59531 10.8453C3.39844 10.4516 2.48281 9.11095 2.48281 7.5172C2.48281 6.74376 2.7375 6.03283 3.2375 5.45939C2.91875 4.51408 3.26719 3.7047 3.31406 3.58439C4.22188 3.50314 5.16562 4.23439 5.23906 4.2922C5.75469 4.15314 6.34375 4.0797 7.00313 4.0797C7.66563 4.0797 8.25625 4.15626 8.77656 4.29689C8.95312 4.16251 9.82812 3.53439 10.6719 3.61095C10.7172 3.73126 11.0578 4.52189 10.7578 5.4547C11.2641 6.0297 11.5219 6.74689 11.5219 7.52189C11.5219 9.11876 10.6 10.4609 8.39688 10.8484C8.58558 11.034 8.73541 11.2553 8.83763 11.4995C8.93984 11.7436 8.99238 12.0057 8.99219 12.2703V14.0281C9.00469 14.1688 8.99219 14.3078 9.22656 14.3078C11.9937 13.375 13.9859 10.761 13.9859 7.68126C13.9859 3.81876 10.8547 0.6922 6.99375 0.6922Z" fill="black"/>
</svg>
