<svg width="16" height="17" viewBox="0 0 16 17" fill="none" xmlns="http://www.w3.org/2000/svg">
<path d="M7.99375 1.69214C4.12969 1.69058 1 4.8187 1 8.67964C1 11.7328 2.95781 14.3281 5.68437 15.2812C6.05156 15.3734 5.99531 15.1125 5.99531 14.9343V13.7234C3.875 13.9718 3.78906 12.5687 3.64687 12.3343C3.35937 11.8437 2.67969 11.7187 2.88281 11.4843C3.36562 11.2359 3.85781 11.5468 4.42812 12.389C4.84062 13 5.64531 12.8968 6.05312 12.7953C6.14219 12.4281 6.33281 12.1 6.59531 11.8453C4.39844 11.4515 3.48281 10.1109 3.48281 8.51714C3.48281 7.7437 3.7375 7.03276 4.2375 6.45933C3.91875 5.51401 4.26719 4.70464 4.31406 4.58433C5.22188 4.50308 6.16562 5.23433 6.23906 5.29214C6.75469 5.15308 7.34375 5.07964 8.00313 5.07964C8.66563 5.07964 9.25625 5.1562 9.77656 5.29683C9.95313 5.16245 10.8281 4.53433 11.6719 4.61089C11.7172 4.7312 12.0578 5.52183 11.7578 6.45464C12.2641 7.02964 12.5219 7.74683 12.5219 8.52183C12.5219 10.1187 11.6 11.4609 9.39688 11.8484C9.58558 12.034 9.73541 12.2553 9.83763 12.4994C9.93984 12.7435 9.99238 13.0056 9.99219 13.2703V15.0281C10.0047 15.1687 9.99219 15.3078 10.2266 15.3078C12.9938 14.375 14.9859 11.7609 14.9859 8.6812C14.9859 4.8187 11.8547 1.69214 7.99375 1.69214V1.69214Z" fill="white" fill-opacity="0.87"/>
</svg>
